<svg xmlns="http://www.w3.org/2000/svg" viewBox="0 0 408 402" preserveAspectRatio="xMidYMid meet">
  <!-- Monogram 164x161. Komorka = 204x201 (164+40, 161+40). Kafel = 2x2 = 408x402. Offset = 102px. -->
  <g fill="#000000">
    <path d="M74.8676 51.0202L67.5791 65.776L42.7467 12.8801L14.5781 72.2786H0L35.5809 0H50.0352L74.8676 51.0202Z"/>
    <path d="M163.696 88.1602L160.237 95.0378L128.239 160.439H113.784L88.9519 110.294L96.1177 95.5381L120.95 147.683L149.118 88.1602H163.696Z"/>
    <path d="M163.696 72.2786H149.118L120.949 12.8801L92.0409 73.6541H92.1638L50.0352 160.439H35.5809L0 88.1598H14.5781L42.7467 147.558L76.1029 76.4052H75.98L113.784 0H128.239L163.696 72.2786Z"/>
  </g>
  <g fill="#000000" transform="translate(204,0)">
    <path d="M74.8676 51.0202L67.5791 65.776L42.7467 12.8801L14.5781 72.2786H0L35.5809 0H50.0352L74.8676 51.0202Z"/>
    <path d="M163.696 88.1602L160.237 95.0378L128.239 160.439H113.784L88.9519 110.294L96.1177 95.5381L120.95 147.683L149.118 88.1602H163.696Z"/>
    <path d="M163.696 72.2786H149.118L120.949 12.8801L92.0409 73.6541H92.1638L50.0352 160.439H35.5809L0 88.1598H14.5781L42.7467 147.558L76.1029 76.4052H75.98L113.784 0H128.239L163.696 72.2786Z"/>
  </g>
  <g fill="#000000" transform="translate(-102,201)">
    <path d="M74.8676 51.0202L67.5791 65.776L42.7467 12.8801L14.5781 72.2786H0L35.5809 0H50.0352L74.8676 51.0202Z"/>
    <path d="M163.696 88.1602L160.237 95.0378L128.239 160.439H113.784L88.9519 110.294L96.1177 95.5381L120.95 147.683L149.118 88.1602H163.696Z"/>
    <path d="M163.696 72.2786H149.118L120.949 12.8801L92.0409 73.6541H92.1638L50.0352 160.439H35.5809L0 88.1598H14.5781L42.7467 147.558L76.1029 76.4052H75.98L113.784 0H128.239L163.696 72.2786Z"/>
  </g>
  <g fill="#000000" transform="translate(102,201)">
    <path d="M74.8676 51.0202L67.5791 65.776L42.7467 12.8801L14.5781 72.2786H0L35.5809 0H50.0352L74.8676 51.0202Z"/>
    <path d="M163.696 88.1602L160.237 95.0378L128.239 160.439H113.784L88.9519 110.294L96.1177 95.5381L120.95 147.683L149.118 88.1602H163.696Z"/>
    <path d="M163.696 72.2786H149.118L120.949 12.8801L92.0409 73.6541H92.1638L50.0352 160.439H35.5809L0 88.1598H14.5781L42.7467 147.558L76.1029 76.4052H75.98L113.784 0H128.239L163.696 72.2786Z"/>
  </g>
  <g fill="#000000" transform="translate(306,201)">
    <path d="M74.8676 51.0202L67.5791 65.776L42.7467 12.8801L14.5781 72.2786H0L35.5809 0H50.0352L74.8676 51.0202Z"/>
    <path d="M163.696 88.1602L160.237 95.0378L128.239 160.439H113.784L88.9519 110.294L96.1177 95.5381L120.95 147.683L149.118 88.1602H163.696Z"/>
    <path d="M163.696 72.2786H149.118L120.949 12.8801L92.0409 73.6541H92.1638L50.0352 160.439H35.5809L0 88.1598H14.5781L42.7467 147.558L76.1029 76.4052H75.98L113.784 0H128.239L163.696 72.2786Z"/>
  </g>
</svg>